<svg id="Layer_5" enable-background="new 0 0 64 64" height="512" viewBox="0 0 64 64" width="512" xmlns="http://www.w3.org/2000/svg"><g><g><path d="m55 37c0 2.761-10.297 5-23 5s-23-2.239-23-5c0 12-6 19-6 19s5 1 9-1c0 0 0 3-2 6 6 0 9-6 12-6s6 7 6 7 5-6 9-5 7 4 7 4 2-5 6-4 5 4 11 4c0 0-6-11-6-24z" fill="rgb(0,0,0)"/></g><g><g><path d="m22.441 37h-6.72l.157-1.137c.551-3.982-2.744-10.789-2.777-10.857l-.439-.898 16.578-8.099.439.897c1.082 2.208 4.559 8.169 7.618 9.219l1.313.451-.843 1.103c-.12.157-3.012 3.876-9.615 7.102-1.848.902-3.723 1.636-5.574 2.179z" fill="rgb(0,0,0)"/></g></g><g><path d="m56 37c0-4.349-13.18-5.765-21.772-5.971-.803.624-1.748 1.293-2.85 1.974l.622-.003c14.235 0 22 2.643 22 4s-7.765 4-22 4-22-2.643-22-4c0-.284 1.045-1.486 5.924-2.55 0-.009-.002-.019-.003-.029l1.091-.313c2.084-.311 5.375-1.087 9.334-3.021 4-1.954 6.649-4.098 8.168-5.552l.715-.933-1.602-1.198-.556.743c-1.425 1.355-3.887 3.328-7.603 5.144-3.77 1.841-6.873 2.565-8.813 2.848l-1.691.477c-4.677 1.078-6.964 2.517-6.964 4.384 0 11.453-5.703 18.283-5.76 18.351l-1.104 1.296 1.668.333c.19.038 4.154.805 7.993-.419-.22 1.033-.677 2.457-1.629 3.884l-1.037 1.555h1.869c3.875 0 6.549-2.215 8.697-3.995 1.299-1.076 2.421-2.005 3.303-2.005 1.611 0 3.941 3.739 5.081 6.394l.644 1.499 1.043-1.252c1.279-1.535 5.206-5.368 7.989-4.67 3.67.917 6.508 3.709 6.537 3.738l1.068 1.06.565-1.395c.069-.17 1.738-4.179 4.83-3.403 1.396.349 2.407.981 3.477 1.65 1.783 1.115 3.804 2.379 7.766 2.379h1.685l-.807-1.479c-.059-.107-5.878-10.922-5.878-23.521zm-1.706 20.925c-1.155-.722-2.348-1.469-4.052-1.895-3.13-.782-5.387 1.433-6.552 3.366-1.265-1.027-3.606-2.655-6.448-3.366-3.445-.856-7.173 2.352-8.972 4.19-1.151-2.29-3.527-6.22-6.27-6.22-1.603 0-2.982 1.143-4.579 2.465-1.593 1.32-3.355 2.78-5.601 3.319 1.164-2.529 1.18-4.674 1.18-4.784v-1.618l-1.447.724c-2.308 1.154-5.036 1.216-6.733 1.103 1.614-2.426 4.534-7.826 5.082-15.641 4.427 2.652 15.556 3.432 22.098 3.432 6.534 0 17.645-.778 22.083-3.423.529 9.268 3.738 17.101 5.256 20.331-2.308-.271-3.644-1.107-5.045-1.983z"/><path d="m22.441 37h6.559v-2h-1.321c-1.694.799-3.407 1.462-5.1 1.959z"/><path d="m30.14 17.795 29.594-14.458.928 1.896-29.463 14.395c.336.547.704 1.117 1.1 1.689l31.04-15.163-2.686-5.49-31.413 15.344.439.897c.123.251.281.555.461.89z"/><path d="m31 35h2v2h-2z"/><path d="m27 47h2v2h-2z"/><path d="m36 51h2v2h-2z"/><path d="m16 49h2v2h-2z"/><path d="m49 47h2v2h-2z"/></g></g></svg>